<?xml version="1.0" encoding="UTF-8" standalone="no"?>
<!DOCTYPE svg PUBLIC "-//W3C//DTD SVG 1.1//EN" "http://www.w3.org/Graphics/SVG/1.1/DTD/svg11.dtd">
<svg width="100%" height="100%" viewBox="0 0 400 400" version="1.1" xmlns="http://www.w3.org/2000/svg" xmlns:xlink="http://www.w3.org/1999/xlink" xml:space="preserve" xmlns:serif="http://www.serif.com/" style="fill-rule:evenodd;clip-rule:evenodd;stroke-linejoin:round;stroke-miterlimit:2;">
    <g transform="matrix(1.20026,0,0,1.26446,-55.8349,-56.397)">
        <ellipse cx="213.565" cy="203.015" rx="161.761" ry="153.957" style="fill:rgb(205,44,38);fill-opacity:0.6;"/>
    </g>
    <g transform="matrix(1.19352,0,0,1.26446,-53.3065,-56.397)">
        <path d="M213.565,49.057C302.844,49.057 375.326,118.043 375.326,203.015C375.326,287.986 302.844,356.972 213.565,356.972C124.287,356.972 51.805,287.986 51.805,203.015C51.805,118.043 124.287,49.057 213.565,49.057ZM213.565,56.755C298.38,56.755 367.238,122.292 367.238,203.015C367.238,283.737 298.38,349.274 213.565,349.274C128.751,349.274 59.893,283.737 59.893,203.015C59.893,122.292 128.751,56.755 213.565,56.755Z" style="fill:rgb(205,44,38);"/>
    </g>
</svg>
